<svg xmlns="http://www.w3.org/2000/svg" viewBox="0 0 10.36 16"><defs><style>.cls-1{fill:#1b75bb;}.cls-2{fill:#b6e5ff;}</style></defs><title>address</title><g id="Capa_2" data-name="Capa 2"><g id="Capa_1-2" data-name="Capa 1"><path class="cls-1" d="M5.18,0A5.18,5.18,0,0,0,0,5.18,13.64,13.64,0,0,0,1.48,9.74L2,10.85c1.14,2.31,2.39,4.43,2.64,4.85a.61.61,0,0,0,1.05,0c.25-.42,1.49-2.53,2.63-4.84l.53-1.11a13.68,13.68,0,0,0,1.49-4.58A5.18,5.18,0,0,0,5.18,0Z"/><path class="cls-2" d="M5.18,1.23a4,4,0,0,1,4,4c0,1.7-2.5,6.44-4,9-1.45-2.55-4-7.29-4-9A4,4,0,0,1,5.18,1.23Z"/><path class="cls-1" d="M8.15,5.18a3,3,0,1,0-3,3A3,3,0,0,0,8.15,5.18Z"/><circle class="cls-2" cx="5.18" cy="5.18" r="1.75"/></g></g></svg>