<svg xmlns="http://www.w3.org/2000/svg" viewBox="0 0 16 16"><defs><style>.cls-1{fill:#a7b2be;}</style></defs><title>linkedin</title><g id="Capa_2" data-name="Capa 2"><g id="Capa_1-2" data-name="Capa 1"><path class="cls-1" d="M14.82,0H1.18A1.17,1.17,0,0,0,0,1.15V14.85A1.17,1.17,0,0,0,1.18,16H14.82A1.17,1.17,0,0,0,16,14.85V1.15A1.17,1.17,0,0,0,14.82,0ZM4.75,13.63H2.37V6H4.75ZM3.56,5A1.38,1.38,0,1,1,4.94,3.58,1.38,1.38,0,0,1,3.56,5Zm10.07,8.68H11.26V9.92c0-.89,0-2-1.23-2s-1.42,1-1.42,2v3.78H6.24V6H8.51V7h0a2.49,2.49,0,0,1,2.25-1.23c2.4,0,2.84,1.58,2.84,3.64Z"/></g></g></svg>