<svg xmlns="http://www.w3.org/2000/svg" xmlns:xlink="http://www.w3.org/1999/xlink" viewBox="0 0 88.68 96.75"><defs><style>.cls-1{fill:none;}.cls-2{fill:url(#linear-gradient);}.cls-3,.cls-4,.cls-5,.cls-6{fill:#fff;}.cls-3{opacity:0.2;}.cls-4{opacity:0;}.cls-5{opacity:0.05;}.cls-6{opacity:0.1;}.cls-7{clip-path:url(#clip-path);}.cls-8{fill:url(#linear-gradient-2);}.cls-9{fill:url(#linear-gradient-3);}.cls-10{fill:url(#linear-gradient-4);}.cls-11{fill:url(#linear-gradient-5);}.cls-12{fill:url(#linear-gradient-6);}.cls-13{fill:url(#linear-gradient-7);}.cls-14{fill:url(#linear-gradient-8);}.cls-15{fill:url(#linear-gradient-9);}.cls-16{fill:url(#linear-gradient-10);}.cls-17{fill:url(#linear-gradient-11);}.cls-18{fill:#c5e7ed;}.cls-19{fill:#1b75bb;}</style><linearGradient id="linear-gradient" x1="2345.24" y1="-2585.09" x2="2392.63" y2="-2632.48" gradientTransform="translate(-2331.17 2646.65)" gradientUnits="userSpaceOnUse"><stop offset="0" stop-color="#1b75bb"/><stop offset="1" stop-color="#26a9e0"/></linearGradient><clipPath id="clip-path"><circle class="cls-1" cx="37.74" cy="37.9" r="33.51"/></clipPath><linearGradient id="linear-gradient-2" x1="17.99" y1="59.02" x2="66.01" y2="11" gradientUnits="userSpaceOnUse"><stop offset="0" stop-color="#ec1c24"/><stop offset="1" stop-color="#ee5451"/></linearGradient><linearGradient id="linear-gradient-3" x1="61.43" y1="16.7" x2="65.95" y2="12.19" xlink:href="#linear-gradient-2"/><linearGradient id="linear-gradient-4" x1="64.38" y1="27.95" x2="70.54" y2="21.79" xlink:href="#linear-gradient-2"/><linearGradient id="linear-gradient-5" x1="65.79" y1="18.8" x2="67.64" y2="16.95" xlink:href="#linear-gradient-2"/><linearGradient id="linear-gradient-6" x1="68.12" y1="13.74" x2="70.81" y2="11.04" xlink:href="#linear-gradient-2"/><linearGradient id="linear-gradient-7" x1="74.96" y1="23.13" x2="80.32" y2="17.78" xlink:href="#linear-gradient-2"/><linearGradient id="linear-gradient-8" x1="69.79" y1="19.76" x2="72.28" y2="17.27" xlink:href="#linear-gradient-2"/><linearGradient id="linear-gradient-9" x1="72.76" y1="15.93" x2="74.38" y2="14.31" xlink:href="#linear-gradient-2"/><linearGradient id="linear-gradient-10" x1="70.81" y1="39.24" x2="85.69" y2="24.35" xlink:href="#linear-gradient-2"/><linearGradient id="linear-gradient-11" x1="76.27" y1="41.04" x2="78.24" y2="39.07" xlink:href="#linear-gradient-2"/></defs><title>logo_intelvid</title><g id="Capa_2" data-name="Capa 2"><g id="Capa_1-2" data-name="Capa 1"><circle class="cls-2" cx="37.74" cy="37.9" r="33.51" transform="translate(-15.74 37.79) rotate(-45)"/><path class="cls-3" d="M39.84,4.45A33.38,33.38,0,0,0,49.59,26a33.38,33.38,0,0,0,21.6,9.75A33.51,33.51,0,0,0,39.84,4.45Z"/><path class="cls-4" d="M25.89,49.74A33.53,33.53,0,0,1,20.72,9a33.51,33.51,0,1,0,45.9,45.9A33.53,33.53,0,0,1,25.89,49.74Z"/><path class="cls-5" d="M37.74,37.89A33.5,33.5,0,0,1,29.06,5.52,33.31,33.31,0,0,0,20.72,9a33.52,33.52,0,0,0,45.9,45.9,33.29,33.29,0,0,0,3.49-8.35A33.5,33.5,0,0,1,37.74,37.89Z"/><path class="cls-6" d="M71.19,35.8A33.39,33.39,0,0,1,49.59,26a33.38,33.38,0,0,1-9.75-21.6A33.66,33.66,0,0,0,29.06,5.52,33.52,33.52,0,0,0,70.12,46.58,33.66,33.66,0,0,0,71.19,35.8Z"/><g class="cls-7"><polygon class="cls-8" points="47.41 54.4 47.41 53.18 46.45 52.21 47.41 51.24 47.41 49.72 46.17 48.48 46.17 45.63 43.46 42.92 41.62 42.92 41.62 41.84 41.25 41.48 40.49 41.48 40.49 40.27 41.8 38.95 40.68 37.83 42.43 36.08 41.87 35.53 40.59 35.53 39.87 34.81 39.87 33.54 41.64 31.76 43.41 31.76 45.97 34.33 45.97 36.26 45.49 36.74 46.06 37.31 47.89 35.48 50.62 35.48 51.56 34.54 54.26 34.54 55.93 34.54 56.85 35.46 58.61 35.46 58.61 34.07 59.43 34.07 61 35.64 61 37.05 62.67 37.05 62.67 33.03 64.52 31.18 64.52 28.68 62.84 27 60.13 29.72 58.16 29.72 57.01 28.57 57.01 26.59 57.01 24.18 58.55 22.65 61.9 22.65 63.04 23.79 64.91 23.79 66.17 22.53 66.17 20.03 64.63 18.49 62.44 18.49 60.75 16.8 60.75 14.35 60.75 11.86 58.91 10.03 57.9 9.02 57.9 5.13 57.9 2.89 56.53 1.52 53.04 1.52 51.52 0 49.2 0 47.49 1.71 45.55 1.71 43.18 4.08 43.67 6.59 46.94 6.59 49.17 8.82 49.17 13.5 45.41 17.25 44.13 18.54 42.25 18.54 38.48 22.31 38.48 24.67 38.48 26.08 37.36 27.2 37.36 29.7 37.83 30.17 37.83 34.74 38.88 35.79 38.88 37.25 39.86 38.23 39.86 42.21 40.73 43.09 40.02 43.8 37.81 43.8 36.17 45.43 36.17 49.42 35.34 50.26 35.34 52.31 29.54 58.12 29.54 59.23 25.99 62.78 24.71 64.06 24.71 65.73 26.09 67.11 26.57 66.63 26.57 65.34 28.28 63.63 29.65 63.63 31.35 61.92 34.09 61.92 34.86 61.14 35.56 61.84 38.86 61.84 40.04 60.66 43.92 60.66 45.67 58.91 47.85 58.91 48.96 57.8 48.96 55.95 47.41 54.4"/><polygon class="cls-9" points="61.26 14.29 61.26 16.52 62.8 18.07 64.46 18.07 66.71 15.82 64.97 14.08 66.4 12.65 64.9 11.14 62.7 11.04 61.99 11.75 61.99 13.55 61.26 14.29"/><polygon class="cls-10" points="64.96 25.55 64.96 28.53 68.42 28.53 70.42 26.52 70.42 21.68 68.23 19.48 66.89 20.83 66.89 22.99 68.39 24.49 66.15 26.74 64.96 25.55"/><polygon class="cls-11" points="65.84 17.1 65.65 18.65 66.62 19.62 68.46 17.77 66.82 16.13 65.84 17.1"/><polygon class="cls-12" points="69.81 15.43 72.5 12.74 70.4 10.63 67.86 10.61 67.86 13.48 69.81 15.43"/><polygon class="cls-13" points="75.22 20.75 78.47 20.75 80.08 22.36 82.76 22.36 82.76 20.22 78.02 15.48 75.61 15.48 72.58 18.5 72.58 20.75 75.22 20.75"/><polygon class="cls-14" points="69.26 19.23 71.3 21.27 72.95 21.27 70.64 18.96 70.64 17.39 70.64 15.62 69.26 15.62 69.26 19.23"/><rect class="cls-15" x="72.72" y="14.36" width="1.7" height="1.52"/><polygon class="cls-16" points="83.01 32.41 88.68 32.41 88.68 27.34 86.16 24.82 84.01 24.82 81.83 22.64 76.37 22.64 75.19 23.82 77.02 25.65 71.48 31.19 70.38 31.19 67.88 33.69 67.88 36.31 72.32 36.31 73.16 35.47 75.79 35.47 77.87 37.55 83.01 32.41"/><polygon class="cls-17" points="78.62 41.15 78.62 39.46 77.1 39.46 76.24 38.6 75.38 39.46 75.2 39.64 75.04 39.8 76.39 41.15 78.62 41.15"/><path class="cls-18" d="M65.9,12.65l-1.18,1.18-.25.25.25.25,1.49,1.49-1.89,1.89H62.95l-1.34-1.34V14.43l.63-.63.1-.1V11.9l.49-.49,1.91.09,1.16,1.16Zm.5,0L64.9,11.14,62.7,11l-.71.71v1.8l-.73.73v2.24l1.54,1.55h1.66l2.25-2.25L65,14.08l1.43-1.44Z"/><path class="cls-18" d="M70.07,21.83v4.55l-1.79,1.79h-3V26.41l.58.59.25.25L66.4,27l2.24-2.24.25-.25-.25-.25-1.4-1.4V21l1-1,1.84,1.84Zm.36-.15-2.19-2.19-1.34,1.34V23l1.51,1.51-2.24,2.24L65,25.54v3h3.47l2-2V21.68Z"/><path class="cls-18" d="M68,17.77l-1.34,1.34L66,18.53l.16-1.26.63-.63L68,17.77Zm.5,0-1.65-1.65-1,1-.19,1.56,1,1,1.85-1.85Z"/><path class="cls-18" d="M69.81,15.69l-2.13-2.13V10.43l2.79,0,2.29,2.29ZM68,13.41l1.77,1.77,2.44-2.44-1.93-1.93-2.28,0Z"/><path class="cls-18" d="M82.4,20.37V22H80.23l-1.5-1.5-.1-.1H72.94V18.65l2.82-2.82h2.11l4.53,4.53Zm.36-.15L78,15.48H75.61l-3,3v2.25h5.89l1.61,1.61h2.67V20.22Z"/><path class="cls-18" d="M70.28,16V19.1l.1.1,1.71,1.71h-.64l-1.83-1.83V16Zm.36-.36H69.26v3.62l2,2h1.65L70.63,19V15.62Z"/><path class="cls-18" d="M74.07,14.72v.81h-1v-.81Zm.36-.36H72.72v1.52h1.7V14.36Z"/><path class="cls-18" d="M88.32,27.49V32H82.86l-.1.1L77.87,37,76,35.22l-.1-.1H73l-.1.1-.74.74H68.24V33.83l2.28-2.28h1.11l.1-.1,5.54-5.54.25-.25-.25-.25-1.58-1.58.83-.82h5.16l2.08,2.08.1.1H86l2.31,2.31Zm.36-.15-2.52-2.52H84l-2.19-2.19H76.37l-1.18,1.18L77,25.65l-5.54,5.54H70.37l-2.49,2.49v2.63h4.44l.84-.84h2.63l2.08,2.08L83,32.41h5.67V27.34Z"/><path class="cls-18" d="M76.31,41.33,74.79,39.8l1.46-1.45.93.93H78.8v2Zm-1-1.53L76.46,41h2V39.64H77l-.78-.78Z"/><path class="cls-18" d="M57.46,3.07V9.2l.13.13,1,1L60.3,12V17l.13.13,1.69,1.69.13.13h2.19l1.28,1.29v2.13l-1,1h-1.5l-1-1-.13-.13H58.36l-.13.13L56.7,23.87l-.13.13v4.76l.13.13L57.85,30l.13.13h2.33l.13-.13,2.4-2.4,1.23,1.23V31l-1.72,1.72-.13.13v3.76h-.78V35.45l-.13-.13-1.57-1.57-.13-.13H58.17V35H57l-.8-.8-.13-.13H51.37l-.13.13-.81.81H47.71l-.13.13-1.16,1.16V34.14L46.29,34l-2.57-2.57-.13-.13H41.46l-.13.13-1.78,1.78-.13.13V35l.13.13.72.72.13.13h1.29l.11.11-1.43,1.43-.29.29-.74-.74V35.61l-.13-.13-.92-.92V30l-.13-.13-.34-.34V27.38l1-1,.13-.13V22.49L42.43,19h1.88l.13-.13,1.29-1.29,3.76-3.76.13-.13v-5l-.13-.13L47.26,6.28l-.13-.13H44l-.38-1.92,2.07-2.07h1.94L47.8,2,49.39.45h1.95l1.39,1.39.13.13h3.5l1.11,1.11ZM41.17,39l-.87.87V38.08l.06.06.81.81Zm4.55,6.86v2.85l.13.13L47,49.91v1.15l-.83.83-.31.31.31.32.84.84v1.22l.13.13,1.42,1.42v1.48l-.85.85H45.49l-.13.13-1.62,1.62H39.85l-.13.13-1,1H35.75l-.57-.57-.32-.32-.31.32-.65.65H31.17l-.13.13-1.57,1.57H28.1l-.13.13L26.25,65l-.13.13v1.29l0,0-.93-.93V64.24l1.15-1.15,3.55-3.55.13-.13V58.3l5.68-5.68.13-.13V50.44l.7-.7.13-.13v-4L38,44.25h2.22l.13-.13.71-.71.12-.12v.08h2.1l2.45,2.45ZM41.17,42v.86l-.12-.12L40.3,42v-.1h.76l.1.11ZM57.9,2.89,56.53,1.52H53L51.52,0H49.2L47.49,1.71H45.55L43.18,4.08l.49,2.51h3.27l2.23,2.23V13.5l-3.76,3.76-1.29,1.29H42.25l-3.77,3.77v3.77L37.36,27.2v2.5l.47.47v4.57l1.06,1.06v1.46l1,1v4l.88.88L40,43.8H37.81l-1.63,1.63v4l-.83.83v2.05l-5.81,5.81v1.11L26,62.78l-1.28,1.28v1.68l1.38,1.38.48-.48V65.34l1.71-1.71h1.37l1.7-1.7h2.73l.78-.78.7.7h3.3L40,60.66h3.88l1.75-1.75h2.18L49,57.8V55.95L47.41,54.4V53.18l-1-1,1-1V49.72l-1.24-1.24V45.63l-2.71-2.71H41.62V41.84l-.37-.37h-.76V40.27L41.8,39l-1.12-1.12,1.75-1.75-.56-.56H40.58l-.72-.72V33.54l1.78-1.78h1.77L46,34.33v1.93l-.48.48.57.57,1.83-1.83h2.73l.94-.94h4.37l.93.93h1.76v-1.4h.82L61,35.64v1.41h1.67V33l1.85-1.85V28.68L62.84,27l-2.72,2.72h-2L57,28.57V24.18l1.53-1.53H61.9L63,23.79h1.87l1.26-1.26V20l-1.55-1.55H62.44l-1.69-1.69V11.86L58.91,10l-1-1V2.89Z"/></g><path class="cls-19" d="M3.56,80.06a2.11,2.11,0,0,1,.5,1.45A2.2,2.2,0,0,1,3.55,83,1.94,1.94,0,0,1,2,83.6,1.87,1.87,0,0,1,.52,83,2,2,0,0,1,0,81.62,2.24,2.24,0,0,1,.53,80.1a2,2,0,0,1,1.56-.61A1.85,1.85,0,0,1,3.56,80.06ZM1,96A2.36,2.36,0,0,1,.23,94V85H3.86v8a1.12,1.12,0,0,0,.16.71.6.6,0,0,0,.48.18,2,2,0,0,0,.37,0l.23-.06.32,2.27-.21.1-.48.18a5.27,5.27,0,0,1-.71.18,4.59,4.59,0,0,1-.87.08A3.16,3.16,0,0,1,1,96Z"/><path class="cls-19" d="M13.52,96.54V89.38a3.59,3.59,0,0,0-.2-1.3.72.72,0,0,0-.72-.49,1.51,1.51,0,0,0-1.19.84,4.26,4.26,0,0,0-.55,2.35v5.76H7.23v-6A11.13,11.13,0,0,0,7,88.29a7.87,7.87,0,0,0-.45-1.48,3.85,3.85,0,0,0-.62-1l2.92-.92a5.35,5.35,0,0,1,.41.53,3.4,3.4,0,0,1,.36.65,5.28,5.28,0,0,1,.29.91,3.68,3.68,0,0,1,1.64-1.58,5.18,5.18,0,0,1,2.28-.5,2.88,2.88,0,0,1,2.55,1.09,5,5,0,0,1,.76,2.9v7.69Z"/><path class="cls-19" d="M18.59,85.11h1.88l.39-2.36L24,82.06v3.05h2.71l-.44,2.66H24v5.12q0,1,1.06,1a5.17,5.17,0,0,0,1.1-.11l.55-.14.62,2.43q-.46.16-1.27.36a8.66,8.66,0,0,1-2,.2,4.5,4.5,0,0,1-2.7-.71,2.78,2.78,0,0,1-1-2.41V87.77H18.59Z"/><path class="cls-19" d="M28.08,88.38a5.51,5.51,0,0,1,1.24-2,5.33,5.33,0,0,1,1.85-1.21,6.24,6.24,0,0,1,2.29-.41,5.62,5.62,0,0,1,1.84.26,3.29,3.29,0,0,1,1.24.73,2.91,2.91,0,0,1,.71,1.1,4,4,0,0,1,.23,1.37,3.13,3.13,0,0,1-.41,1.56,4.1,4.1,0,0,1-1.18,1.3A6.8,6.8,0,0,1,34,92a10.48,10.48,0,0,1-2.47.48,2.26,2.26,0,0,0,.59,1.11,1.76,1.76,0,0,0,1.3.42,5.51,5.51,0,0,0,1.08-.11q.57-.11,1.06-.25t1.13-.37l.69,2.39a9.94,9.94,0,0,1-1.35.53q-.62.18-1.43.34a9,9,0,0,1-1.73.16,6.26,6.26,0,0,1-2.4-.41,4.24,4.24,0,0,1-1.63-1.15,4.5,4.5,0,0,1-.92-1.78,8.64,8.64,0,0,1-.29-2.31A7.66,7.66,0,0,1,28.08,88.38Zm4.18-.75a1.77,1.77,0,0,0-.49.67,4,4,0,0,0-.28.92,7.52,7.52,0,0,0-.12,1A3.51,3.51,0,0,0,32.53,90a2.4,2.4,0,0,0,.77-.46,1.75,1.75,0,0,0,.44-.6,1.52,1.52,0,0,0,.14-.6,1,1,0,0,0-.24-.7.81.81,0,0,0-.63-.26A1.15,1.15,0,0,0,32.26,87.63Z"/><path class="cls-19" d="M40.86,96.4a2.65,2.65,0,0,1-.94-.63,2.45,2.45,0,0,1-.55-.93,3.7,3.7,0,0,1-.17-1.15V80.52l3.63-.62v13a1.16,1.16,0,0,0,.2.77,1,1,0,0,0,.72.22,3.86,3.86,0,0,0,.56,0l.56-.09L45.21,96a7.77,7.77,0,0,1-1.16.38,7.05,7.05,0,0,1-1.82.22A3.61,3.61,0,0,1,40.86,96.4Z"/><path class="cls-19" d="M56.3,85a10.1,10.1,0,0,1,.18,1.19,15.51,15.51,0,0,1,.09,1.72A18.51,18.51,0,0,1,56.19,92a7.35,7.35,0,0,1-1.14,2.71,4.34,4.34,0,0,1-1.92,1.51,7.27,7.27,0,0,1-2.74.47,3.55,3.55,0,0,1-2.9-1.12,4.53,4.53,0,0,1-.93-3V85h3.63V92.5a3.11,3.11,0,0,0,.18,1.14.65.65,0,0,0,.64.47,1.08,1.08,0,0,0,.92-.54,4.42,4.42,0,0,0,.58-1.4,12.88,12.88,0,0,0,.32-1.93q.1-1.07.1-2.12a14.15,14.15,0,0,0-.1-1.89q-.1-.75-.17-1.21Z"/><path class="cls-19" d="M61.94,80.06a2.11,2.11,0,0,1,.5,1.45A2.2,2.2,0,0,1,61.93,83a1.94,1.94,0,0,1-1.55.6A1.87,1.87,0,0,1,58.9,83a2,2,0,0,1-.52-1.39,2.25,2.25,0,0,1,.53-1.53,2,2,0,0,1,1.56-.61A1.85,1.85,0,0,1,61.94,80.06ZM59.42,96a2.37,2.37,0,0,1-.8-1.92V85h3.63v8a1.13,1.13,0,0,0,.16.71.61.61,0,0,0,.48.18,2,2,0,0,0,.37,0l.23-.06.32,2.27-.21.1-.48.18a5.32,5.32,0,0,1-.71.18,4.58,4.58,0,0,1-.87.08A3.17,3.17,0,0,1,59.42,96Z"/><path class="cls-19" d="M73.26,96.72l-.14-.16a2.44,2.44,0,0,1-.32-.44,5.68,5.68,0,0,1-.37-.72,4.12,4.12,0,0,1-.28-1A3.57,3.57,0,0,1,71,96.09a3.18,3.18,0,0,1-2,.59,4.39,4.39,0,0,1-2-.41,3.77,3.77,0,0,1-1.39-1.16,5.06,5.06,0,0,1-.81-1.8A9.66,9.66,0,0,1,64.58,91,6.81,6.81,0,0,1,65,88.53a5.83,5.83,0,0,1,1.18-1.94A5.37,5.37,0,0,1,68,85.32a5.82,5.82,0,0,1,2.34-.46l.45,0,.49,0v-5l3.63.6V91a11.17,11.17,0,0,0,.2,2.27,8.89,8.89,0,0,0,.42,1.48,2.82,2.82,0,0,0,.44.79l.21.25Zm-3-3a2.58,2.58,0,0,0,.54-.8,5.24,5.24,0,0,0,.36-1.16,7.33,7.33,0,0,0,.13-1.39V87.7a2.37,2.37,0,0,0-.45-.13,2.59,2.59,0,0,0-.49-.06,1.64,1.64,0,0,0-.92.24,1.72,1.72,0,0,0-.58.67,3.32,3.32,0,0,0-.31,1,8.43,8.43,0,0,0-.09,1.29q0,.64,0,1.23a4.67,4.67,0,0,0,.15,1,1.94,1.94,0,0,0,.36.73.79.79,0,0,0,.64.28A.94.94,0,0,0,70.26,93.72Z"/></g></g></svg>