<svg xmlns="http://www.w3.org/2000/svg" viewBox="0 0 16 11.94"><defs><style>.cls-1{fill:#1b75bb;}.cls-2{fill:#b6e5ff;}</style></defs><title>mail</title><g id="Capa_2" data-name="Capa 2"><g id="Capa_1-2" data-name="Capa 1"><path class="cls-1" d="M14.51,0h-13A1.5,1.5,0,0,0,0,1.49v9a1.5,1.5,0,0,0,1.49,1.49h13A1.5,1.5,0,0,0,16,10.45v-9A1.5,1.5,0,0,0,14.51,0Z"/><polygon class="cls-2" points="13.85 1.04 7.99 5.74 1.82 1.04 13.85 1.04"/><path class="cls-2" d="M11.93,6.49l3,3.63V1.76L8.32,6.81h0l-.13.07h0L8,6.92l-.14,0h0l-.13-.07h0L1,1.76v8.36l3-3.63a.52.52,0,0,1,.8.67L1.75,10.89H14.25L11.12,7.16a.52.52,0,0,1,.8-.67Z"/></g></g></svg>