<svg xmlns="http://www.w3.org/2000/svg" viewBox="0 0 14.04 16"><defs><style>.cls-1{fill:#1b75bb;}.cls-2{fill:#b6e5ff;}</style></defs><title>phone</title><g id="Capa_2" data-name="Capa 2"><g id="Capa_1-2" data-name="Capa 1"><path class="cls-1" d="M9.69,16h0a1.32,1.32,0,0,1-.5-.09c-2-.69-4.06-2.52-6-5.43L3,10.31l0,0-.08-.11C.93,7.31-.08,4.66,0,2.5A1.78,1.78,0,0,1,1,1,6.13,6.13,0,0,1,3.22,0h.11a1.24,1.24,0,0,1,1,.75L5.48,3.45a1.44,1.44,0,0,1-.2,1.61l-.84,1A22.33,22.33,0,0,0,5.8,8.3l0,0,0,0,0,0,0,0a22.35,22.35,0,0,0,1.57,2.07l1.25-.42A1.62,1.62,0,0,1,9.22,10a1.42,1.42,0,0,1,1.06.48l2.09,2a1.23,1.23,0,0,1,.34,1.25A5.35,5.35,0,0,1,11,15.52,2.06,2.06,0,0,1,9.69,16Z"/><path class="cls-2" d="M9.62,14.91h.07a1,1,0,0,0,.61-.26,7.07,7.07,0,0,0,1.38-1.23v0a.24.24,0,0,0-.08-.14l-2.09-2-.05-.06h0a.44.44,0,0,0-.4-.06l-1.6.53a.54.54,0,0,1-.58-.16A25.42,25.42,0,0,1,5,9h0A25.41,25.41,0,0,1,3.31,6.27a.54.54,0,0,1,.06-.6l1.07-1.3A.35.35,0,0,0,4.53,4l0-.07L3.34,1.2a.21.21,0,0,0-.1-.11h0a7,7,0,0,0-1.63.83c-.42.26-.49.49-.5.55s0,0,0,.06C1,4.42,2,6.91,3.82,9.55l.09.12L4,9.87c2.31,3.39,4.27,4.6,5.51,5l.06,0Z"/><path class="cls-1" d="M13.47,8.68h-.09A.47.47,0,0,1,13,8.12,5.07,5.07,0,0,0,9.07,2.23H9a.47.47,0,1,1,.17-.92h.08a6,6,0,0,1,4.67,7A.47.47,0,0,1,13.47,8.68Z"/><path class="cls-1" d="M11.57,8.29h-.08a.47.47,0,0,1-.37-.54,3.12,3.12,0,0,0-2.43-3.6H8.62a.47.47,0,0,1,.17-.92h.09A4.06,4.06,0,0,1,12,7.9.47.47,0,0,1,11.57,8.29Z"/></g></g></svg>