<svg xmlns="http://www.w3.org/2000/svg" viewBox="0 0 19.69 16"><defs><style>.cls-1{fill:#a7b2be;}</style></defs><title>twitter</title><g id="Capa_2" data-name="Capa 2"><g id="Capa_1-2" data-name="Capa 1"><path class="cls-1" d="M6.19,16A11.41,11.41,0,0,0,17.68,4.51c0-.18,0-.35,0-.52a8.22,8.22,0,0,0,2-2.09,8.06,8.06,0,0,1-2.32.64A4.05,4.05,0,0,0,19.14.3a8.09,8.09,0,0,1-2.56,1A4,4,0,0,0,9.7,5,11.47,11.47,0,0,1,1.37.74,4,4,0,0,0,2.62,6.13,4,4,0,0,1,.79,5.63s0,0,0,.05A4,4,0,0,0,4,9.64a4,4,0,0,1-1.82.07A4,4,0,0,0,6,12.51a8.11,8.11,0,0,1-5,1.73,8.24,8.24,0,0,1-1-.06A11.43,11.43,0,0,0,6.19,16"/></g></g></svg>