<svg xmlns="http://www.w3.org/2000/svg" viewBox="0 0 16 16"><defs><style>.cls-1{fill:#1b75bb;}.cls-2{fill:#b6e5ff;}</style></defs><title>url</title><g id="Capa_2" data-name="Capa 2"><g id="Capa_1-2" data-name="Capa 1"><path class="cls-1" d="M8,0a8,8,0,1,0,8,8A8,8,0,0,0,8,0Z"/><path class="cls-2" d="M10.84,4.92a9.19,9.19,0,0,1,.48,2.6H8.49V5.26a11,11,0,0,0,2.35-.36Z"/><path class="cls-2" d="M8.49,4.33V1a10.86,10.86,0,0,1,2,3A9.91,9.91,0,0,1,8.49,4.33Z"/><path class="cls-2" d="M7.52,4.32a10.36,10.36,0,0,1-2-.32,10.63,10.63,0,0,1,2-3Z"/><path class="cls-2" d="M7.52,5.26V7.52H4.68a9.06,9.06,0,0,1,.47-2.64A11.21,11.21,0,0,0,7.52,5.26Z"/><path class="cls-2" d="M3.75,7.52H1A7,7,0,0,1,2.38,3.78a13.66,13.66,0,0,0,1.9.84A10.16,10.16,0,0,0,3.75,7.52Z"/><path class="cls-2" d="M12.26,7.52a10.16,10.16,0,0,0-.52-2.89,12.39,12.39,0,0,0,1.89-.85A7,7,0,0,1,15,7.52Z"/><path class="cls-2" d="M13,3.06a10.93,10.93,0,0,1-1.6.71A12.17,12.17,0,0,0,9.93,1.24,7,7,0,0,1,13,3.06Z"/><path class="cls-2" d="M6.08,1.23A12.17,12.17,0,0,0,4.62,3.72,12.69,12.69,0,0,1,3,3,7,7,0,0,1,6.08,1.23Z"/><path class="cls-2" d="M7.52,14.9A14.56,14.56,0,0,1,5.67,12a10.32,10.32,0,0,1,1.86-.28Z"/><path class="cls-2" d="M7.52,10.76a11.22,11.22,0,0,0-2.23.33,9.72,9.72,0,0,1-.59-2.61H7.52Z"/><path class="cls-2" d="M3.76,8.49a10.51,10.51,0,0,0,.61,2.88,13.57,13.57,0,0,0-2,.86A7,7,0,0,1,1,8.49Z"/><path class="cls-2" d="M4.74,12.26a14.63,14.63,0,0,0,1.51,2.56A7,7,0,0,1,3,13,12.64,12.64,0,0,1,4.74,12.26Z"/><path class="cls-2" d="M8.49,11.69a9.91,9.91,0,0,1,1.87.25,14.6,14.6,0,0,1-1.87,3Z"/><path class="cls-2" d="M8.49,10.76V8.49h2.81a9.56,9.56,0,0,1-.58,2.6A11,11,0,0,0,8.49,10.76Z"/><path class="cls-2" d="M12.25,8.49H15a7,7,0,0,1-1.4,3.75,12.35,12.35,0,0,0-2-.88A10.51,10.51,0,0,0,12.25,8.49Z"/><path class="cls-2" d="M9.77,14.81a14.57,14.57,0,0,0,1.52-2.6A10.89,10.89,0,0,1,13,13,7,7,0,0,1,9.77,14.81Z"/></g></g></svg>